PathFileType	4	(X/Y/Z)	D:\TRACE\v60_Jaco2_6-2-23\BothDRS_Motion1_3-platform.trc
DataRate	CameraRate	NumFrames	NumMarkers	Units	OrigDataRate	OrigDataStartFrame	OrigNumFrames
100.00	100.00	      67	5	mm	100.00	4421	      7073
Frame#	Time	Left_Front			Right_Front			Left_Aft			Right_Aft			Post			
		X1	Y1	Z1	X2	Y2	Z2	X3	Y3	Z3	X4	Y4	Z4	X5	Y5	Z5	

4421	44.200	-754.48920	-6.64680	-642.55078	815.52313	-4.82067	-647.96594	-661.98615	16.53072	492.52649	779.88043	17.90141	501.99094	31.27374	1285.62097	-994.56317	
4422	44.210	-754.87891	-6.21296	-642.76495	815.14124	-4.41373	-647.87207	-662.38873	16.65234	492.42474	779.78827	17.88159	502.01648	31.16568	1285.97034	-994.11481	
4423	44.220	-755.14630	-5.75465	-642.65015	814.63074	-4.04253	-647.86932	-662.83496	16.59223	492.40234	779.29767	17.67920	502.08588	30.38523	1286.63074	-993.60950	
4424	44.230	-755.56055	-5.31929	-642.55896	814.08350	-3.84585	-647.81573	-663.25513	16.41657	492.49741	778.33002	17.12376	501.54126	29.97495	1287.06360	-993.36542	
4425	44.240	-755.90710	-5.11654	-642.57080	813.71283	-3.47034	-647.73804	-663.78888	16.18142	492.61487	777.91364	16.93606	502.28723	29.68142	1287.41199	-992.99335	
4426	44.250	-756.54083	-4.79825	-642.49811	813.35480	-3.17447	-647.70087	-664.22235	15.91147	492.71744	777.54486	16.69360	502.36060	29.18215	1287.71838	-992.11755	
4427	44.260	-757.09631	-4.42476	-642.25873	813.02661	-2.79074	-647.69281	-664.86877	15.86623	492.63654	777.35547	16.63221	502.46683	29.08530	1288.35596	-991.52472	
4428	44.270	-757.40607	-4.01314	-642.23541	812.53485	-2.43850	-647.62616	-665.48132	15.80300	492.65921	777.08478	16.55592	502.48306	28.21088	1288.85583	-990.69714	
4429	44.280	-757.86346	-3.76708	-642.14325	811.84326	-2.02885	-647.56036	-665.90161	15.71050	492.76413	776.84381	16.41605	502.62326	27.74617	1289.38513	-989.91022	
4430	44.290	-758.48804	-3.48979	-642.08154	811.45850	-1.76822	-647.33118	-666.28796	15.53020	493.00378	775.31384	15.89437	502.15662	27.32751	1289.91333	-988.84991	
4431	44.300	-758.85693	-3.23585	-641.98767	810.81421	-1.40567	-647.22455	-666.94574	15.24589	493.05478	774.95984	15.66339	502.82489	26.96416	1290.42236	-987.92664	
4432	44.310	-759.29150	-2.94121	-641.97266	810.36438	-1.10057	-647.31329	-667.49591	15.11790	493.07840	774.62012	15.48308	502.90115	26.25064	1290.87366	-986.95740	
4433	44.320	-760.07013	-2.70136	-641.82794	809.95496	-0.86146	-647.22687	-668.02747	15.00364	493.17181	774.54279	15.29563	502.88480	26.36568	1291.21631	-986.15497	
4434	44.330	-760.67584	-2.57979	-641.72522	809.58722	-0.36127	-647.19281	-668.46301	14.75256	493.25674	773.77643	15.05355	502.91885	25.39636	1291.52869	-985.38080	
4435	44.340	-761.11322	-2.27655	-641.61340	809.09058	-0.12363	-646.96570	-668.99951	14.42966	493.24182	773.21997	14.80289	502.84473	24.62525	1291.96448	-984.75623	
4436	44.350	-761.58661	-1.94417	-641.71698	808.31213	0.09404	-646.83832	-669.70648	14.29781	493.32196	772.53674	14.40469	503.13681	24.37594	1292.39246	-984.59576	
4437	44.360	-762.14447	-1.34418	-641.81256	807.39850	0.39194	-646.74902	-670.42932	14.05204	493.54099	771.91388	14.17956	503.23544	23.79139	1293.18799	-984.29413	
4438	44.370	-762.85583	-0.98234	-641.58344	807.09552	0.89010	-646.57996	-670.97296	13.93351	493.70844	770.89313	13.76795	503.50119	23.05925	1293.65234	-983.81140	
4439	44.380	-763.54938	-0.41898	-641.53650	806.74176	1.39962	-646.49048	-671.52808	13.68622	493.77692	770.71539	13.63620	503.29388	22.71614	1294.02954	-983.38013	
4440	44.390	-764.09070	-0.19887	-641.45697	806.04498	1.72183	-646.42072	-672.14203	13.42237	493.78131	770.02844	13.38100	503.48547	21.70962	1294.88171	-982.70947	
4441	44.400	-764.68732	0.07237	-641.25580	805.36768	2.10871	-646.19604	-672.80054	13.11573	493.82822	769.06604	12.86824	503.43021	21.60024	1295.31323	-981.86292	
4442	44.410	-765.33557	0.40390	-641.16571	804.61487	2.63437	-646.12476	-673.37634	12.75025	494.02026	768.36157	12.51103	503.68002	20.81309	1295.72400	-980.89124	
4443	44.420	-766.01306	0.83834	-641.20239	804.22980	2.74461	-646.05975	-674.00940	12.47332	493.99088	767.86047	12.35973	503.67453	19.91645	1296.32544	-980.32953	
4444	44.430	-766.82935	1.20330	-640.99103	803.40155	3.06478	-645.94708	-674.59460	12.33976	493.95474	767.25671	12.18742	503.65814	18.99819	1297.05627	-978.98761	
4445	44.440	-767.37506	1.60242	-640.82654	802.65906	3.62637	-645.80634	-675.48547	12.21264	494.21573	766.55347	12.03658	503.77081	18.44480	1297.52905	-977.97717	
4446	44.450	-768.06653	1.98898	-640.89160	801.89679	3.88509	-645.82111	-676.16986	11.77149	494.37985	765.62360	11.69551	503.77563	17.89519	1297.99609	-976.84491	
4447	44.460	-768.81329	2.23117	-640.64130	801.16095	4.00623	-645.82794	-676.92346	11.49985	494.43988	764.93079	11.21628	503.85202	17.16647	1298.29382	-975.41382	
4448	44.470	-769.37158	2.61873	-640.52148	800.54529	4.38573	-645.69232	-677.48041	11.41620	494.61761	764.40814	11.09816	504.02017	16.42195	1299.17078	-974.52618	
4449	44.480	-770.17523	3.20054	-640.48743	799.85590	4.95715	-645.50989	-678.27618	11.16062	494.67734	763.54547	11.00057	504.17227	15.73931	1299.68591	-973.73041	
4450	44.490	-770.84894	3.55969	-640.63306	798.97546	5.18725	-645.60413	-678.81683	10.81083	494.84689	763.14355	10.82126	504.21738	14.98388	1300.07153	-973.35382	
4451	44.500	-771.66815	3.84955	-640.56421	798.31787	5.49278	-645.58533	-679.41620	10.42629	494.91391	762.45422	10.51266	504.40613	13.84490	1300.53833	-973.04822	
4452	44.510	-772.88043	4.16532	-640.25519	797.37103	5.79521	-645.32019	-680.30865	9.83605	495.04385	761.42163	10.15029	504.71133	13.23846	1301.01404	-972.79352	
4453	44.520	-773.47504	4.48323	-640.11969	796.67194	6.15005	-645.25781	-681.05499	9.48831	495.33075	760.49249	9.65771	504.79126	12.75446	1301.63428	-972.34747	
4454	44.530	-774.15430	4.87158	-640.02643	795.85321	6.53507	-645.26636	-681.31165	8.95954	495.74527	759.93207	9.49654	504.86047	12.22434	1302.45447	-971.60248	
4455	44.540	-774.73956	5.13160	-639.91461	794.94110	6.86649	-645.05084	-682.93085	9.81590	495.13013	759.45935	9.44670	504.92773	11.26474	1303.04016	-971.06775	
4456	44.550	-775.77295	5.62291	-639.82849	794.28961	7.39286	-644.99506	-683.68762	9.59869	495.12180	758.62457	9.36505	505.08472	10.30553	1303.68359	-970.16443	
4457	44.560	-776.62134	6.04661	-639.60382	793.70160	7.78950	-644.99554	-684.39349	9.22123	495.16312	757.69031	8.80577	505.07861	9.87748	1304.09509	-969.20935	
4458	44.570	-777.26410	6.23273	-639.56763	792.92151	8.10552	-644.84131	-685.29047	8.75310	495.31021	756.94366	8.31573	505.13232	9.12642	1304.54004	-967.89923	
4459	44.580	-777.97473	6.76460	-639.55286	791.77344	8.48296	-644.67615	-686.37750	8.63963	495.63004	755.98413	8.12558	505.33972	8.03649	1305.24207	-966.66931	
4460	44.590	-778.92657	7.36049	-639.46753	791.09570	8.80030	-644.43726	-686.87244	8.31622	495.74136	755.26227	8.02524	505.55414	7.46792	1305.85315	-965.11353	
4461	44.600	-780.04584	8.10450	-639.47888	790.33319	9.34947	-644.58630	-687.70270	8.02567	495.77762	754.66620	7.83015	505.49701	6.09676	1306.50549	-964.01318	
4462	44.610	-780.60645	8.24085	-639.40637	789.21637	9.94176	-644.37732	-688.83606	8.03312	495.83920	753.48511	7.63356	505.60159	5.39504	1306.87305	-963.17694	
4463	44.620	-781.23798	8.64312	-639.20898	788.55640	10.07250	-644.19269	-689.57770	7.52125	495.83786	752.28632	7.05147	505.90768	4.46448	1307.48096	-961.98853	
4464	44.630	-782.64813	8.74205	-638.87378	787.64655	10.42322	-644.09314	-690.42627	7.45431	495.73267	751.77899	6.94015	505.95056	3.75563	1308.16602	-961.39099	
4465	44.640	-783.35223	9.26528	-639.06012	786.83856	10.87622	-643.88843	-691.45618	7.08805	496.17502	750.93164	6.72789	505.96848	2.77750	1308.83899	-960.69086	
4466	44.650	-783.90216	9.53321	-638.75677	786.19696	11.17671	-643.81128	-692.12164	6.81530	496.13235	750.16315	6.46751	506.00815	2.37895	1309.35413	-960.40961	
4467	44.660	-784.91345	9.94148	-638.59192	785.32831	12.03468	-643.75543	-692.95001	6.59312	496.15250	749.25592	6.09946	506.07550	1.07199	1309.89734	-959.70819	
4468	44.670	-786.15845	10.25366	-638.41101	784.35828	12.34998	-643.53558	-693.97998	6.38497	496.36002	748.20398	5.72802	506.20953	0.49784	1310.37830	-959.31299	
4469	44.680	-786.89960	10.71853	-638.51367	783.32678	12.57529	-643.54980	-694.89539	5.99969	496.49561	747.22095	5.51278	506.41678	-0.27865	1311.01636	-958.62988	
4470	44.690	-787.72162	11.34445	-638.70123	782.47107	12.96447	-643.64008	-695.66370	5.52219	496.69635	746.37732	5.18059	506.36194	-1.30001	1311.72083	-957.98560	
4471	44.700	-788.69080	11.96016	-638.31207	781.41736	13.56197	-643.41449	-696.78540	5.36792	496.82379	745.63556	4.99114	506.44293	-2.38489	1312.25842	-956.68921	
4472	44.710	-789.58826	12.44808	-638.15027	780.52179	14.12922	-643.34283	-697.50421	5.19749	496.93375	744.62860	4.68829	506.57001	-3.18969	1312.76245	-955.75403	
4473	44.720	-790.50140	12.66011	-638.35938	779.90820	14.29103	-643.21887	-698.35522	4.86339	496.93341	743.67786	4.28976	506.70135	-4.26381	1313.31689	-954.66504	
4474	44.730	-791.33508	12.75998	-638.42236	779.14514	14.15248	-642.86194	-699.35071	4.66675	496.95016	742.91418	4.03899	506.76471	-5.37939	1314.05286	-953.30524	
4475	44.740	-792.26813	13.19432	-637.89294	777.75781	14.45063	-642.93726	-700.27594	4.24978	496.98508	742.02905	3.60474	506.82315	-6.16792	1314.64160	-952.03888	
4476	44.750	-793.13318	13.62939	-637.78058	777.32666	15.51779	-642.70435	-701.23236	3.83387	497.14240	740.78113	3.37123	507.04947	-6.73581	1315.13330	-950.79169	
4477	44.760	-794.02197	14.28490	-637.78998	776.23792	15.98443	-642.65509	-702.29797	3.79847	497.45718	740.02570	3.09388	507.26352	-8.03951	1315.87036	-949.91437	
4478	44.770	-795.17041	14.85931	-637.45911	775.30505	16.35756	-642.56354	-703.21155	3.45291	497.39468	739.08514	2.98346	507.35724	-9.07383	1316.84949	-948.87933	
4479	44.780	-796.32257	15.11519	-637.12646	774.17700	16.41968	-642.55927	-704.37103	3.88272	498.44302	738.18469	2.60297	507.47040	-10.02467	1317.26331	-947.89673	
4480	44.790	-796.95618	15.34713	-637.24475	773.24023	17.14302	-642.22723	-705.48004	3.55208	498.46057	737.20801	2.17694	507.48239	-10.87841	1317.97925	-946.98975	
4481	44.800	-798.13837	15.97841	-637.53088	772.29620	17.29678	-642.16986	-706.48621	3.25484	498.64719	735.79211	2.01865	507.77515	-11.58049	1318.36121	-946.23340	
4482	44.810	-799.02734	16.50723	-637.43842	771.44965	17.78235	-642.19281	-707.31036	2.94877	498.72614	735.21655	1.57976	507.83148	-13.06028	1318.87292	-945.69330	
4483	44.820	-799.82666	16.85388	-637.01978	770.48669	18.23353	-642.09613	-708.09857	2.87834	498.84055	734.46393	1.35233	507.93280	-13.84829	1319.49731	-944.87823	
4484	44.830	-800.62469	17.40890	-636.88373	769.34698	18.61165	-642.03210	-709.13379	2.42118	498.73511	733.40570	1.07223	507.93124	-14.26652	1320.06482	-944.23022	
4485	44.840	-802.07819	17.75970	-636.97607	768.43787	18.80560	-641.86566	-710.15735	2.18582	498.70917	732.37891	0.81641	508.03979	-15.83305	1320.60559	-943.54596	
4486	44.850	-802.66779	18.23568	-636.90863	767.42798	19.20295	-641.79840	-711.04779	1.99378	498.78519	731.41315	0.43685	508.10648	-16.32237	1321.08521	-942.70782	
4487	44.860	-803.66010	18.24332	-636.52246	766.53491	19.58986	-641.71326	-712.22034	1.60966	499.03058	730.30206	0.14286	507.90881	-17.51274	1321.77808	-941.75177	
